<mxfile host="app.diagrams.net" agent="Mozilla/5.0 (Windows NT 10.0; Win64; x64) AppleWebKit/537.36 (KHTML, like Gecko) Chrome/130.0.0.0 Safari/537.36 Edg/130.0.0.0" version="24.8.0">
  <diagram name="Page-1" id="rlaarHuO3725GYXsxIvz">
    <mxGraphModel dx="1636" dy="455" grid="1" gridSize="10" guides="1" tooltips="1" connect="1" arrows="1" fold="1" page="1" pageScale="1" pageWidth="850" pageHeight="1100" math="0" shadow="0">
      <root>
        <mxCell id="0" />
        <mxCell id="1" parent="0" />
        <mxCell id="5XtZi0VJuXomcuFeIR-1-48" value="" style="rounded=1;whiteSpace=wrap;html=1;" parent="1" vertex="1">
          <mxGeometry x="540" y="130" width="20" height="900" as="geometry" />
        </mxCell>
        <mxCell id="5XtZi0VJuXomcuFeIR-1-1" value="Actor" style="shape=umlActor;verticalLabelPosition=top;verticalAlign=bottom;html=1;outlineConnect=0;labelPosition=center;align=center;" parent="1" vertex="1">
          <mxGeometry x="20" y="50" width="30" height="60" as="geometry" />
        </mxCell>
        <mxCell id="5XtZi0VJuXomcuFeIR-1-2" value="" style="endArrow=none;dashed=1;html=1;rounded=0;" parent="1" edge="1">
          <mxGeometry width="50" height="50" relative="1" as="geometry">
            <mxPoint x="40" y="1070" as="sourcePoint" />
            <mxPoint x="35" y="110" as="targetPoint" />
          </mxGeometry>
        </mxCell>
        <mxCell id="5XtZi0VJuXomcuFeIR-1-3" value="Controls" style="rounded=1;whiteSpace=wrap;html=1;" parent="1" vertex="1">
          <mxGeometry x="130" y="80" width="60" height="30" as="geometry" />
        </mxCell>
        <mxCell id="5XtZi0VJuXomcuFeIR-1-4" value="" style="endArrow=none;dashed=1;html=1;rounded=0;" parent="1" source="5XtZi0VJuXomcuFeIR-1-15" edge="1">
          <mxGeometry width="50" height="50" relative="1" as="geometry">
            <mxPoint x="159.5" y="690.666748046875" as="sourcePoint" />
            <mxPoint x="159.5" y="110" as="targetPoint" />
          </mxGeometry>
        </mxCell>
        <mxCell id="5XtZi0VJuXomcuFeIR-1-5" value="Redux Store" style="rounded=1;whiteSpace=wrap;html=1;" parent="1" vertex="1">
          <mxGeometry x="290" y="80" width="60" height="30" as="geometry" />
        </mxCell>
        <mxCell id="5XtZi0VJuXomcuFeIR-1-6" value="" style="endArrow=none;dashed=1;html=1;rounded=0;" parent="1" edge="1">
          <mxGeometry width="50" height="50" relative="1" as="geometry">
            <mxPoint x="320" y="1070" as="sourcePoint" />
            <mxPoint x="319.5" y="110" as="targetPoint" />
          </mxGeometry>
        </mxCell>
        <mxCell id="5XtZi0VJuXomcuFeIR-1-7" value="API" style="rounded=1;whiteSpace=wrap;html=1;" parent="1" vertex="1">
          <mxGeometry x="390" y="80" width="60" height="30" as="geometry" />
        </mxCell>
        <mxCell id="5XtZi0VJuXomcuFeIR-1-8" value="" style="endArrow=none;dashed=1;html=1;rounded=0;" parent="1" source="5XtZi0VJuXomcuFeIR-1-29" edge="1">
          <mxGeometry width="50" height="50" relative="1" as="geometry">
            <mxPoint x="419.5" y="690.666748046875" as="sourcePoint" />
            <mxPoint x="419.5" y="110" as="targetPoint" />
          </mxGeometry>
        </mxCell>
        <mxCell id="5XtZi0VJuXomcuFeIR-1-9" value="App" style="rounded=1;whiteSpace=wrap;html=1;" parent="1" vertex="1">
          <mxGeometry x="520" y="80" width="60" height="30" as="geometry" />
        </mxCell>
        <mxCell id="5XtZi0VJuXomcuFeIR-1-10" value="" style="endArrow=none;dashed=1;html=1;rounded=0;" parent="1" source="5XtZi0VJuXomcuFeIR-1-48" edge="1">
          <mxGeometry width="50" height="50" relative="1" as="geometry">
            <mxPoint x="549.5" y="690.666748046875" as="sourcePoint" />
            <mxPoint x="549.5" y="110" as="targetPoint" />
          </mxGeometry>
        </mxCell>
        <mxCell id="5XtZi0VJuXomcuFeIR-1-11" value="ErrorModal" style="rounded=1;whiteSpace=wrap;html=1;" parent="1" vertex="1">
          <mxGeometry x="640" y="80" width="70" height="30" as="geometry" />
        </mxCell>
        <mxCell id="5XtZi0VJuXomcuFeIR-1-12" value="" style="endArrow=none;dashed=1;html=1;rounded=0;entryX=0.5;entryY=1;entryDx=0;entryDy=0;" parent="1" target="5XtZi0VJuXomcuFeIR-1-11" edge="1">
          <mxGeometry width="50" height="50" relative="1" as="geometry">
            <mxPoint x="670" y="1070" as="sourcePoint" />
            <mxPoint x="670" y="330" as="targetPoint" />
          </mxGeometry>
        </mxCell>
        <mxCell id="5XtZi0VJuXomcuFeIR-1-13" value="Select" style="rounded=1;whiteSpace=wrap;html=1;" parent="1" vertex="1">
          <mxGeometry x="770" y="80" width="60" height="30" as="geometry" />
        </mxCell>
        <mxCell id="5XtZi0VJuXomcuFeIR-1-14" value="" style="endArrow=none;dashed=1;html=1;rounded=0;" parent="1" edge="1">
          <mxGeometry width="50" height="50" relative="1" as="geometry">
            <mxPoint x="800" y="1070" as="sourcePoint" />
            <mxPoint x="799.5" y="110" as="targetPoint" />
          </mxGeometry>
        </mxCell>
        <mxCell id="5XtZi0VJuXomcuFeIR-1-16" value="" style="endArrow=none;dashed=1;html=1;rounded=0;" parent="1" target="5XtZi0VJuXomcuFeIR-1-15" edge="1">
          <mxGeometry width="50" height="50" relative="1" as="geometry">
            <mxPoint x="160" y="1070" as="sourcePoint" />
            <mxPoint x="159.5" y="110" as="targetPoint" />
          </mxGeometry>
        </mxCell>
        <mxCell id="5XtZi0VJuXomcuFeIR-1-15" value="" style="rounded=1;whiteSpace=wrap;html=1;" parent="1" vertex="1">
          <mxGeometry x="150" y="130" width="20" height="900" as="geometry" />
        </mxCell>
        <mxCell id="5XtZi0VJuXomcuFeIR-1-18" value="" style="endArrow=classic;html=1;rounded=0;" parent="1" edge="1">
          <mxGeometry width="50" height="50" relative="1" as="geometry">
            <mxPoint x="40" y="130" as="sourcePoint" />
            <mxPoint x="150" y="130" as="targetPoint" />
          </mxGeometry>
        </mxCell>
        <mxCell id="5XtZi0VJuXomcuFeIR-1-19" value="Clicks &quot;By Pub Line&lt;div&gt;Name&quot; button&lt;/div&gt;" style="edgeLabel;html=1;align=center;verticalAlign=middle;resizable=0;points=[];" parent="5XtZi0VJuXomcuFeIR-1-18" vertex="1" connectable="0">
          <mxGeometry x="-0.0909" y="-3" relative="1" as="geometry">
            <mxPoint y="17" as="offset" />
          </mxGeometry>
        </mxCell>
        <mxCell id="5XtZi0VJuXomcuFeIR-1-22" value="" style="group" parent="1" vertex="1" connectable="0">
          <mxGeometry x="160" y="160" width="40" height="90" as="geometry" />
        </mxCell>
        <mxCell id="5XtZi0VJuXomcuFeIR-1-17" value="" style="rounded=1;whiteSpace=wrap;html=1;" parent="5XtZi0VJuXomcuFeIR-1-22" vertex="1">
          <mxGeometry y="20" width="20" height="60" as="geometry" />
        </mxCell>
        <mxCell id="5XtZi0VJuXomcuFeIR-1-20" value="" style="curved=1;endArrow=classic;html=1;rounded=0;exitX=0.979;exitY=0.028;exitDx=0;exitDy=0;exitPerimeter=0;entryX=1;entryY=0;entryDx=0;entryDy=0;" parent="5XtZi0VJuXomcuFeIR-1-22" source="5XtZi0VJuXomcuFeIR-1-15" target="5XtZi0VJuXomcuFeIR-1-17" edge="1">
          <mxGeometry width="50" height="50" relative="1" as="geometry">
            <mxPoint x="40" y="10" as="sourcePoint" />
            <mxPoint x="50" y="120" as="targetPoint" />
            <Array as="points">
              <mxPoint x="30" />
            </Array>
          </mxGeometry>
        </mxCell>
        <mxCell id="5XtZi0VJuXomcuFeIR-1-21" value="" style="curved=1;endArrow=classic;html=1;rounded=0;exitX=1.033;exitY=0.059;exitDx=0;exitDy=0;exitPerimeter=0;" parent="5XtZi0VJuXomcuFeIR-1-22" edge="1">
          <mxGeometry width="50" height="50" relative="1" as="geometry">
            <mxPoint x="20" y="77" as="sourcePoint" />
            <mxPoint x="12" y="110" as="targetPoint" />
            <Array as="points">
              <mxPoint x="40" y="90" />
            </Array>
          </mxGeometry>
        </mxCell>
        <mxCell id="5XtZi0VJuXomcuFeIR-1-23" value="" style="endArrow=classic;html=1;rounded=0;entryX=0.976;entryY=0.958;entryDx=0;entryDy=0;entryPerimeter=0;" parent="5XtZi0VJuXomcuFeIR-1-22" target="5XtZi0VJuXomcuFeIR-1-25" edge="1">
          <mxGeometry width="50" height="50" relative="1" as="geometry">
            <mxPoint x="20" y="40" as="sourcePoint" />
            <mxPoint x="116" y="38" as="targetPoint" />
          </mxGeometry>
        </mxCell>
        <mxCell id="5XtZi0VJuXomcuFeIR-1-24" value="" style="rounded=1;whiteSpace=wrap;html=1;" parent="1" vertex="1">
          <mxGeometry x="310" y="130" width="20" height="900" as="geometry" />
        </mxCell>
        <mxCell id="5XtZi0VJuXomcuFeIR-1-25" value="&lt;font style=&quot;font-size: 8px;&quot;&gt;dispatch(&lt;/font&gt;&lt;span style=&quot;font-size: 8px; background-color: initial;&quot;&gt;updateSelectedMode(&lt;/span&gt;&lt;div&gt;&lt;span style=&quot;font-size: 8px; background-color: initial;&quot;&gt;LINE_NAME_MODE))&lt;/span&gt;&lt;/div&gt;" style="text;html=1;align=center;verticalAlign=middle;resizable=0;points=[];autosize=1;strokeColor=none;fillColor=none;" parent="1" vertex="1">
          <mxGeometry x="183" y="162" width="130" height="40" as="geometry" />
        </mxCell>
        <mxCell id="5XtZi0VJuXomcuFeIR-1-27" value="" style="endArrow=classic;html=1;rounded=0;entryX=-0.02;entryY=0.198;entryDx=0;entryDy=0;entryPerimeter=0;" parent="1" target="5XtZi0VJuXomcuFeIR-1-24" edge="1">
          <mxGeometry width="50" height="50" relative="1" as="geometry">
            <mxPoint x="171" y="306" as="sourcePoint" />
            <mxPoint x="300" y="250" as="targetPoint" />
          </mxGeometry>
        </mxCell>
        <mxCell id="5XtZi0VJuXomcuFeIR-1-28" value="&lt;font style=&quot;font-size: 8px;&quot;&gt;dispatch(updateIsLoading(true))&lt;/font&gt;" style="edgeLabel;html=1;align=center;verticalAlign=middle;resizable=0;points=[];" parent="5XtZi0VJuXomcuFeIR-1-27" vertex="1" connectable="0">
          <mxGeometry x="0.0378" y="1" relative="1" as="geometry">
            <mxPoint x="-4" y="-10" as="offset" />
          </mxGeometry>
        </mxCell>
        <mxCell id="5XtZi0VJuXomcuFeIR-1-30" value="" style="endArrow=none;dashed=1;html=1;rounded=0;" parent="1" target="5XtZi0VJuXomcuFeIR-1-29" edge="1">
          <mxGeometry width="50" height="50" relative="1" as="geometry">
            <mxPoint x="420" y="1070" as="sourcePoint" />
            <mxPoint x="419.5" y="110" as="targetPoint" />
          </mxGeometry>
        </mxCell>
        <mxCell id="5XtZi0VJuXomcuFeIR-1-29" value="" style="rounded=1;whiteSpace=wrap;html=1;" parent="1" vertex="1">
          <mxGeometry x="410" y="130" width="20" height="900" as="geometry" />
        </mxCell>
        <mxCell id="5XtZi0VJuXomcuFeIR-1-31" value="" style="endArrow=classic;html=1;rounded=0;entryX=0;entryY=0.244;entryDx=0;entryDy=0;entryPerimeter=0;" parent="1" target="5XtZi0VJuXomcuFeIR-1-29" edge="1">
          <mxGeometry width="50" height="50" relative="1" as="geometry">
            <mxPoint x="168" y="351" as="sourcePoint" />
            <mxPoint x="312" y="350" as="targetPoint" />
          </mxGeometry>
        </mxCell>
        <mxCell id="5XtZi0VJuXomcuFeIR-1-32" value="/getPubLineName" style="edgeLabel;html=1;align=center;verticalAlign=middle;resizable=0;points=[];" parent="5XtZi0VJuXomcuFeIR-1-31" vertex="1" connectable="0">
          <mxGeometry x="0.0378" y="1" relative="1" as="geometry">
            <mxPoint x="-34" y="-10" as="offset" />
          </mxGeometry>
        </mxCell>
        <mxCell id="5XtZi0VJuXomcuFeIR-1-34" value="[Error Response]" style="text;html=1;align=center;verticalAlign=middle;resizable=0;points=[];autosize=1;strokeColor=none;fillColor=none;" parent="1" vertex="1">
          <mxGeometry x="40" y="380" width="110" height="30" as="geometry" />
        </mxCell>
        <mxCell id="5XtZi0VJuXomcuFeIR-1-35" value="" style="endArrow=classic;dashed=1;html=1;rounded=0;endFill=1;" parent="1" edge="1">
          <mxGeometry width="50" height="50" relative="1" as="geometry">
            <mxPoint x="410" y="410" as="sourcePoint" />
            <mxPoint x="170" y="410" as="targetPoint" />
          </mxGeometry>
        </mxCell>
        <mxCell id="5XtZi0VJuXomcuFeIR-1-36" value="HTTP Error" style="edgeLabel;html=1;align=center;verticalAlign=middle;resizable=0;points=[];" parent="5XtZi0VJuXomcuFeIR-1-35" vertex="1" connectable="0">
          <mxGeometry x="0.4187" y="3" relative="1" as="geometry">
            <mxPoint x="17" y="-13" as="offset" />
          </mxGeometry>
        </mxCell>
        <mxCell id="5XtZi0VJuXomcuFeIR-1-37" value="" style="endArrow=classic;html=1;rounded=0;exitX=1.033;exitY=0.362;exitDx=0;exitDy=0;exitPerimeter=0;" parent="1" source="5XtZi0VJuXomcuFeIR-1-15" edge="1">
          <mxGeometry width="50" height="50" relative="1" as="geometry">
            <mxPoint x="270" y="500" as="sourcePoint" />
            <mxPoint x="309" y="456" as="targetPoint" />
          </mxGeometry>
        </mxCell>
        <mxCell id="5XtZi0VJuXomcuFeIR-1-38" value="dispatch(updateIsLoading(&lt;div&gt;false))&lt;/div&gt;" style="edgeLabel;html=1;align=center;verticalAlign=middle;resizable=0;points=[];" parent="5XtZi0VJuXomcuFeIR-1-37" vertex="1" connectable="0">
          <mxGeometry x="-0.1828" y="1" relative="1" as="geometry">
            <mxPoint x="11" y="-16" as="offset" />
          </mxGeometry>
        </mxCell>
        <mxCell id="5XtZi0VJuXomcuFeIR-1-39" value="" style="endArrow=classic;html=1;rounded=0;exitX=1.1;exitY=0.616;exitDx=0;exitDy=0;exitPerimeter=0;" parent="1" edge="1">
          <mxGeometry width="50" height="50" relative="1" as="geometry">
            <mxPoint x="173" y="530" as="sourcePoint" />
            <mxPoint x="310" y="530" as="targetPoint" />
          </mxGeometry>
        </mxCell>
        <mxCell id="5XtZi0VJuXomcuFeIR-1-40" value="dispatch(&lt;div&gt;updateSelectedMode(&lt;div&gt;null))&lt;/div&gt;&lt;/div&gt;" style="edgeLabel;html=1;align=center;verticalAlign=middle;resizable=0;points=[];" parent="5XtZi0VJuXomcuFeIR-1-39" vertex="1" connectable="0">
          <mxGeometry x="-0.1828" y="1" relative="1" as="geometry">
            <mxPoint x="10" y="-23" as="offset" />
          </mxGeometry>
        </mxCell>
        <mxCell id="5XtZi0VJuXomcuFeIR-1-41" value="" style="endArrow=classic;html=1;rounded=0;exitX=1.1;exitY=0.616;exitDx=0;exitDy=0;exitPerimeter=0;" parent="1" edge="1">
          <mxGeometry width="50" height="50" relative="1" as="geometry">
            <mxPoint x="170" y="600" as="sourcePoint" />
            <mxPoint x="307" y="600" as="targetPoint" />
          </mxGeometry>
        </mxCell>
        <mxCell id="5XtZi0VJuXomcuFeIR-1-42" value="dispatch(updateErrMsg(&lt;div&gt;errMsg))&lt;/div&gt;" style="edgeLabel;html=1;align=center;verticalAlign=middle;resizable=0;points=[];" parent="5XtZi0VJuXomcuFeIR-1-41" vertex="1" connectable="0">
          <mxGeometry x="-0.1828" y="1" relative="1" as="geometry">
            <mxPoint x="11" y="-16" as="offset" />
          </mxGeometry>
        </mxCell>
        <mxCell id="5XtZi0VJuXomcuFeIR-1-43" value="" style="endArrow=classic;dashed=1;html=1;rounded=0;endFill=1;" parent="1" edge="1">
          <mxGeometry width="50" height="50" relative="1" as="geometry">
            <mxPoint x="310" y="480" as="sourcePoint" />
            <mxPoint x="170" y="480" as="targetPoint" />
          </mxGeometry>
        </mxCell>
        <mxCell id="5XtZi0VJuXomcuFeIR-1-44" value="isLoading" style="edgeLabel;html=1;align=center;verticalAlign=middle;resizable=0;points=[];" parent="5XtZi0VJuXomcuFeIR-1-43" vertex="1" connectable="0">
          <mxGeometry x="0.4187" y="3" relative="1" as="geometry">
            <mxPoint x="29" y="-13" as="offset" />
          </mxGeometry>
        </mxCell>
        <mxCell id="5XtZi0VJuXomcuFeIR-1-46" value="" style="endArrow=classic;dashed=1;html=1;rounded=0;endFill=1;" parent="1" edge="1">
          <mxGeometry width="50" height="50" relative="1" as="geometry">
            <mxPoint x="310" y="560" as="sourcePoint" />
            <mxPoint x="170" y="560" as="targetPoint" />
          </mxGeometry>
        </mxCell>
        <mxCell id="5XtZi0VJuXomcuFeIR-1-47" value="selectedMode" style="edgeLabel;html=1;align=center;verticalAlign=middle;resizable=0;points=[];" parent="5XtZi0VJuXomcuFeIR-1-46" vertex="1" connectable="0">
          <mxGeometry x="0.4187" y="3" relative="1" as="geometry">
            <mxPoint x="29" y="-13" as="offset" />
          </mxGeometry>
        </mxCell>
        <mxCell id="5XtZi0VJuXomcuFeIR-1-49" value="" style="endArrow=none;dashed=1;html=1;rounded=0;" parent="1" target="5XtZi0VJuXomcuFeIR-1-48" edge="1">
          <mxGeometry width="50" height="50" relative="1" as="geometry">
            <mxPoint x="550" y="1070" as="sourcePoint" />
            <mxPoint x="549.5" y="110" as="targetPoint" />
          </mxGeometry>
        </mxCell>
        <mxCell id="5XtZi0VJuXomcuFeIR-1-52" value="" style="rounded=1;whiteSpace=wrap;html=1;" parent="1" vertex="1">
          <mxGeometry x="662" y="641.1" width="20" height="99" as="geometry" />
        </mxCell>
        <mxCell id="5XtZi0VJuXomcuFeIR-1-50" value="" style="endArrow=classic;html=1;rounded=0;exitX=1.038;exitY=0.545;exitDx=0;exitDy=0;exitPerimeter=0;" parent="1" source="5XtZi0VJuXomcuFeIR-1-24" edge="1">
          <mxGeometry width="50" height="50" relative="1" as="geometry">
            <mxPoint x="400" y="570" as="sourcePoint" />
            <mxPoint x="540" y="619" as="targetPoint" />
          </mxGeometry>
        </mxCell>
        <mxCell id="5XtZi0VJuXomcuFeIR-1-51" value="errMsg" style="edgeLabel;html=1;align=center;verticalAlign=middle;resizable=0;points=[];" parent="5XtZi0VJuXomcuFeIR-1-50" vertex="1" connectable="0">
          <mxGeometry x="0.2474" y="2" relative="1" as="geometry">
            <mxPoint y="-7" as="offset" />
          </mxGeometry>
        </mxCell>
        <mxCell id="5XtZi0VJuXomcuFeIR-1-58" value="" style="endArrow=classic;html=1;rounded=0;entryX=0;entryY=0;entryDx=0;entryDy=0;exitX=1.034;exitY=0.611;exitDx=0;exitDy=0;exitPerimeter=0;" parent="1" target="5XtZi0VJuXomcuFeIR-1-52" edge="1">
          <mxGeometry width="50" height="50" relative="1" as="geometry">
            <mxPoint x="560.6800000000003" y="639.9999999999999" as="sourcePoint" />
            <mxPoint x="590" y="670.1" as="targetPoint" />
          </mxGeometry>
        </mxCell>
        <mxCell id="5XtZi0VJuXomcuFeIR-1-59" value="Renders" style="edgeLabel;html=1;align=center;verticalAlign=middle;resizable=0;points=[];" parent="5XtZi0VJuXomcuFeIR-1-58" vertex="1" connectable="0">
          <mxGeometry x="-0.0648" relative="1" as="geometry">
            <mxPoint y="-10" as="offset" />
          </mxGeometry>
        </mxCell>
        <mxCell id="5XtZi0VJuXomcuFeIR-1-60" value="" style="endArrow=classic;dashed=1;html=1;rounded=0;endFill=1;" parent="1" edge="1">
          <mxGeometry width="50" height="50" relative="1" as="geometry">
            <mxPoint x="660" y="670.1" as="sourcePoint" />
            <mxPoint x="560" y="670.34" as="targetPoint" />
          </mxGeometry>
        </mxCell>
        <mxCell id="5XtZi0VJuXomcuFeIR-1-62" value="" style="endArrow=classic;html=1;rounded=0;" parent="1" edge="1">
          <mxGeometry width="50" height="50" relative="1" as="geometry">
            <mxPoint x="560" y="710.1" as="sourcePoint" />
            <mxPoint x="660" y="710.1" as="targetPoint" />
          </mxGeometry>
        </mxCell>
        <mxCell id="5XtZi0VJuXomcuFeIR-1-63" value="open()" style="edgeLabel;html=1;align=center;verticalAlign=middle;resizable=0;points=[];" parent="5XtZi0VJuXomcuFeIR-1-62" vertex="1" connectable="0">
          <mxGeometry x="-0.1457" relative="1" as="geometry">
            <mxPoint y="-10" as="offset" />
          </mxGeometry>
        </mxCell>
        <mxCell id="5XtZi0VJuXomcuFeIR-1-64" value="" style="endArrow=classic;html=1;rounded=0;" parent="1" edge="1">
          <mxGeometry width="50" height="50" relative="1" as="geometry">
            <mxPoint x="540" y="750" as="sourcePoint" />
            <mxPoint x="40" y="750" as="targetPoint" />
          </mxGeometry>
        </mxCell>
        <mxCell id="5XtZi0VJuXomcuFeIR-1-65" value="App rendered to user" style="edgeLabel;html=1;align=center;verticalAlign=middle;resizable=0;points=[];" parent="5XtZi0VJuXomcuFeIR-1-64" vertex="1" connectable="0">
          <mxGeometry x="0.751" y="1" relative="1" as="geometry">
            <mxPoint x="137" y="-11" as="offset" />
          </mxGeometry>
        </mxCell>
        <mxCell id="5XtZi0VJuXomcuFeIR-1-67" value="" style="endArrow=classic;dashed=1;html=1;rounded=0;exitX=0;exitY=0.609;exitDx=0;exitDy=0;exitPerimeter=0;endFill=1;" parent="1" edge="1">
          <mxGeometry width="50" height="50" relative="1" as="geometry">
            <mxPoint x="410" y="820.24" as="sourcePoint" />
            <mxPoint x="170" y="820" as="targetPoint" />
          </mxGeometry>
        </mxCell>
        <mxCell id="5XtZi0VJuXomcuFeIR-1-68" value="opts" style="edgeLabel;html=1;align=center;verticalAlign=middle;resizable=0;points=[];" parent="5XtZi0VJuXomcuFeIR-1-67" vertex="1" connectable="0">
          <mxGeometry x="0.4187" y="3" relative="1" as="geometry">
            <mxPoint x="17" y="-13" as="offset" />
          </mxGeometry>
        </mxCell>
        <mxCell id="5XtZi0VJuXomcuFeIR-1-69" value="" style="endArrow=classic;html=1;rounded=0;entryX=0;entryY=0.856;entryDx=0;entryDy=0;entryPerimeter=0;" parent="1" edge="1">
          <mxGeometry width="50" height="50" relative="1" as="geometry">
            <mxPoint x="170" y="860" as="sourcePoint" />
            <mxPoint x="310" y="860.3999999999999" as="targetPoint" />
          </mxGeometry>
        </mxCell>
        <mxCell id="5XtZi0VJuXomcuFeIR-1-70" value="dispatch(updateOptions(&lt;div&gt;opts)&lt;/div&gt;" style="edgeLabel;html=1;align=center;verticalAlign=middle;resizable=0;points=[];" parent="5XtZi0VJuXomcuFeIR-1-69" vertex="1" connectable="0">
          <mxGeometry x="-0.3182" y="-1" relative="1" as="geometry">
            <mxPoint x="21" y="-16" as="offset" />
          </mxGeometry>
        </mxCell>
        <mxCell id="5XtZi0VJuXomcuFeIR-1-71" value="" style="rounded=1;whiteSpace=wrap;html=1;" parent="1" vertex="1">
          <mxGeometry x="790" y="130" width="20" height="900" as="geometry" />
        </mxCell>
        <mxCell id="5XtZi0VJuXomcuFeIR-1-33" value="alt" style="shape=umlFrame;whiteSpace=wrap;html=1;pointerEvents=0;" parent="1" vertex="1">
          <mxGeometry x="-50" y="380" width="950" height="630" as="geometry" />
        </mxCell>
        <mxCell id="5XtZi0VJuXomcuFeIR-1-72" value="" style="endArrow=classic;html=1;rounded=0;entryX=0.017;entryY=0.876;entryDx=0;entryDy=0;entryPerimeter=0;" parent="1" edge="1">
          <mxGeometry width="50" height="50" relative="1" as="geometry">
            <mxPoint x="330" y="880" as="sourcePoint" />
            <mxPoint x="790.3399999999997" y="878.3999999999999" as="targetPoint" />
          </mxGeometry>
        </mxCell>
        <mxCell id="5XtZi0VJuXomcuFeIR-1-73" value="options" style="edgeLabel;html=1;align=center;verticalAlign=middle;resizable=0;points=[];" parent="5XtZi0VJuXomcuFeIR-1-72" vertex="1" connectable="0">
          <mxGeometry x="0.1582" y="-2" relative="1" as="geometry">
            <mxPoint y="-11" as="offset" />
          </mxGeometry>
        </mxCell>
        <mxCell id="5XtZi0VJuXomcuFeIR-1-74" value="" style="endArrow=classic;dashed=1;html=1;rounded=0;exitX=0;exitY=0.609;exitDx=0;exitDy=0;exitPerimeter=0;endFill=1;entryX=1.017;entryY=0.917;entryDx=0;entryDy=0;entryPerimeter=0;" parent="1" edge="1">
          <mxGeometry width="50" height="50" relative="1" as="geometry">
            <mxPoint x="791.66" y="900" as="sourcePoint" />
            <mxPoint x="171.99999999999991" y="905.06" as="targetPoint" />
          </mxGeometry>
        </mxCell>
        <mxCell id="5XtZi0VJuXomcuFeIR-1-75" value="Re-render" style="edgeLabel;html=1;align=center;verticalAlign=middle;resizable=0;points=[];" parent="5XtZi0VJuXomcuFeIR-1-74" vertex="1" connectable="0">
          <mxGeometry x="0.4187" y="3" relative="1" as="geometry">
            <mxPoint x="120" y="-13" as="offset" />
          </mxGeometry>
        </mxCell>
        <mxCell id="5XtZi0VJuXomcuFeIR-1-76" value="" style="endArrow=classic;html=1;rounded=0;exitX=1.033;exitY=0.362;exitDx=0;exitDy=0;exitPerimeter=0;" parent="1" edge="1">
          <mxGeometry width="50" height="50" relative="1" as="geometry">
            <mxPoint x="172" y="940" as="sourcePoint" />
            <mxPoint x="310" y="940" as="targetPoint" />
          </mxGeometry>
        </mxCell>
        <mxCell id="5XtZi0VJuXomcuFeIR-1-77" value="dispatch(updateIsLoading(&lt;div&gt;false))&lt;/div&gt;" style="edgeLabel;html=1;align=center;verticalAlign=middle;resizable=0;points=[];" parent="5XtZi0VJuXomcuFeIR-1-76" vertex="1" connectable="0">
          <mxGeometry x="-0.1828" y="1" relative="1" as="geometry">
            <mxPoint x="11" y="-16" as="offset" />
          </mxGeometry>
        </mxCell>
        <mxCell id="5XtZi0VJuXomcuFeIR-1-78" value="" style="endArrow=classic;dashed=1;html=1;rounded=0;endFill=1;" parent="1" edge="1">
          <mxGeometry width="50" height="50" relative="1" as="geometry">
            <mxPoint x="310" y="960" as="sourcePoint" />
            <mxPoint x="170" y="960" as="targetPoint" />
          </mxGeometry>
        </mxCell>
        <mxCell id="5XtZi0VJuXomcuFeIR-1-79" value="isLoading" style="edgeLabel;html=1;align=center;verticalAlign=middle;resizable=0;points=[];" parent="5XtZi0VJuXomcuFeIR-1-78" vertex="1" connectable="0">
          <mxGeometry x="0.4187" y="3" relative="1" as="geometry">
            <mxPoint x="29" y="-13" as="offset" />
          </mxGeometry>
        </mxCell>
        <mxCell id="5XtZi0VJuXomcuFeIR-1-66" value="" style="endArrow=none;dashed=1;html=1;rounded=0;" parent="1" edge="1">
          <mxGeometry width="50" height="50" relative="1" as="geometry">
            <mxPoint x="-47" y="790" as="sourcePoint" />
            <mxPoint x="900" y="790" as="targetPoint" />
          </mxGeometry>
        </mxCell>
        <mxCell id="5XtZi0VJuXomcuFeIR-1-80" value="" style="endArrow=classic;html=1;rounded=0;exitX=-0.067;exitY=0.958;exitDx=0;exitDy=0;exitPerimeter=0;" parent="1" source="5XtZi0VJuXomcuFeIR-1-15" edge="1">
          <mxGeometry width="50" height="50" relative="1" as="geometry">
            <mxPoint x="60" y="970" as="sourcePoint" />
            <mxPoint x="40" y="992" as="targetPoint" />
          </mxGeometry>
        </mxCell>
        <mxCell id="5XtZi0VJuXomcuFeIR-1-81" value="Controls re-rendered&lt;div&gt;with new options&lt;/div&gt;" style="text;html=1;align=center;verticalAlign=middle;resizable=0;points=[];autosize=1;strokeColor=none;fillColor=none;" parent="1" vertex="1">
          <mxGeometry x="30" y="950" width="130" height="40" as="geometry" />
        </mxCell>
        <mxCell id="5XtZi0VJuXomcuFeIR-1-82" value="[Options returned&amp;nbsp;&lt;div&gt;as response]&lt;/div&gt;" style="text;html=1;align=center;verticalAlign=middle;resizable=0;points=[];autosize=1;strokeColor=none;fillColor=none;" parent="1" vertex="1">
          <mxGeometry x="38" y="796" width="120" height="40" as="geometry" />
        </mxCell>
      </root>
    </mxGraphModel>
  </diagram>
</mxfile>
